<?xml version="1.0" standalone="no"?><!DOCTYPE svg PUBLIC "-//W3C//DTD SVG 1.1//EN" "http://www.w3.org/Graphics/SVG/1.1/DTD/svg11.dtd"><svg t="1597980289300" class="icon" viewBox="0 0 1024 1024" version="1.1" xmlns="http://www.w3.org/2000/svg" p-id="646" width="64" height="64" xmlns:xlink="http://www.w3.org/1999/xlink"><defs><style type="text/css"></style></defs><path d="M695.666948 332.770272c17.5879 17.5879 17.5879 46.094497 0 63.672399L395.472787 696.636832c-17.5879 17.5879-46.094497 17.5879-63.682398 0-17.5879-17.5879-17.5879-46.094497 0-63.672398l300.194162-300.184163c17.5879-17.5879 46.094497-17.5879 63.682397-0.009999z m-363.876559 0c17.5879-17.5879 46.094497-17.5879 63.682398 0l300.194161 300.184163c17.5879 17.5879 17.5879 46.094497 0 63.672398-17.5879 17.5879-46.094497 17.5879-63.682397 0L331.790389 396.45267c-17.5879-17.5879-17.5879-46.094497 0-63.682398z m471.743681 475.663213c-163.850439 160.940786-427.149005 158.611064-588.129786-5.199379S56.693232 376.125096 220.483678 215.114319s427.079013-158.791043 588.129786 4.959408a415.88035 415.88035 0 0 1 119.365749 295.234753 415.888349 415.888349 0 0 1-124.445143 293.125005z m73.521223-655.301767C731.872626 5.499343 512.058868-40.145207 320.101785 37.485525 128.144701 115.116257 1.849779 300.734097 0.119986 507.779379s121.425504 394.752873 312.052745 475.583222 411.180911 38.885358 558.813287-106.297309c201.595933-198.236334 204.305609-522.34764 6.069275-723.933574z" p-id="647" fill="#3590ff"></path></svg>